<?xml version="1.0" encoding="utf-8"?>
<!-- Generator: Adobe Illustrator 12.0.0, SVG Export Plug-In . SVG Version: 6.00 Build 51448)  -->
<!DOCTYPE svg PUBLIC "-//W3C//DTD SVG 1.1//EN" "http://www.w3.org/Graphics/SVG/1.1/DTD/svg11.dtd" [
	<!ENTITY ns_svg "http://www.w3.org/2000/svg">
	<!ENTITY ns_xlink "http://www.w3.org/1999/xlink">
]>
<svg  version="1.1" id="Layer_1" xmlns="&ns_svg;" xmlns:xlink="&ns_xlink;" width="279.6" height="284.915"
	 viewBox="0 0 279.6 284.915" overflow="visible" enable-background="new 0 0 279.6 284.915" xml:space="preserve">
<line display="none" fill="none" stroke="#000000" x1="37.248" y1="184.331" x2="51.914" y2="205.664"/>
<g>
	<line fill="none" stroke="#000000" x1="35.248" y1="284.415" x2="237.248" y2="283.748"/>
	<line fill="none" stroke="#000000" x1="35.873" y1="284.581" x2="22.269" y2="220.81"/>
	<line fill="none" stroke="#000000" x1="236.935" y1="284.018" x2="251.915" y2="186.998"/>
	<line fill="none" stroke="#000000" x1="203.636" y1="137.95" x2="215.935" y2="127.332"/>
	<line fill="none" stroke="#000000" x1="166.935" y1="162.581" x2="182.81" y2="152.143"/>
	<path fill="none" stroke="#000000" d="M182.717,153.017c-0.045-0.332-0.079-0.668-0.102-1.007"/>
	<path fill="none" stroke="#000000" d="M204.218,138.375c4.209,2.556,7.029,7.252,7.029,12.624c0,8.1-6.416,14.666-14.332,14.666
		c-7.248,0-13.237-5.503-14.198-12.647"/>
	<path fill="none" stroke="#000000" d="M203.314,137.87c0.308,0.157,0.609,0.326,0.904,0.504"/>
	<path fill="none" stroke="#000000" d="M215.529,127.468c10.72,4.233,17.886,11.918,17.886,20.697c0,13.346-16.565,24.166-37,24.166
		c-12.343,0-23.273-3.947-29.995-10.015"/>
	<polyline fill="none" stroke="#000000" points="81.332,258.399 81.332,270.941 53.332,270.941 53.332,237.607 	"/>
	<line fill="none" stroke="#000000" x1="81.332" y1="237.607" x2="81.332" y2="248.649"/>
	<path fill="none" stroke="#000000" d="M53.407,237.886c-0.05-0.444-0.075-0.894-0.075-1.35c0-7.141,6.296-12.93,14.063-12.93
		c7.767,0,14.063,5.789,14.063,12.93c0,0.479-0.028,0.953-0.083,1.419"/>
	<path fill="none" stroke="#000000" d="M81.603,258.899c-3.21,0-5.813-2.407-5.813-5.375s2.603-5.375,5.813-5.375"/>
	<line fill="none" stroke="#000000" x1="251.79" y1="187.321" x2="278.998" y2="198.331"/>
	<path fill="none" stroke="#000000" d="M279.216,198.47c-12.793-15.332-25.025-40.346-32.937-69.874
		c-5.213-19.454-7.822-38.147-8.02-54.265"/>
	<path fill="none" stroke="#000000" d="M238.207,74.303c-2.65,5.708-6.547,11.335-11.6,16.388
		c-4.693,4.694-9.883,8.39-15.173,11.015"/>
	<line fill="none" stroke="#000000" x1="211.873" y1="101.581" x2="199.41" y2="30.665"/>
	<line fill="none" stroke="#000000" x1="197.748" y1="30.665" x2="217.248" y2="30.331"/>
	<line fill="none" stroke="#000000" x1="216.998" y1="30.393" x2="188.81" y2="4.518"/>
	<line fill="none" stroke="#000000" x1="189.248" y1="4.331" x2="161.248" y2="28.331"/>
	<line fill="none" stroke="#000000" x1="161.373" y1="28.331" x2="176.435" y2="27.768"/>
	<line fill="none" stroke="#000000" x1="176.248" y1="27.331" x2="175.185" y2="58.581"/>
	<line fill="none" stroke="#000000" x1="155.248" y1="58.331" x2="175.623" y2="58.331"/>
	<line fill="none" stroke="#000000" x1="156.271" y1="74.331" x2="155.662" y2="57.956"/>
	<path fill="none" stroke="#000000" d="M140.498,73.081"/>
	<line fill="none" stroke="#000000" x1="156.56" y1="73.865" x2="149.175" y2="73.437"/>
	<line fill="none" stroke="#000000" x1="140.383" y1="72.643" x2="139.487" y2="87.206"/>
	<line fill="none" stroke="#000000" x1="139.998" y1="87.081" x2="129.998" y2="86.831"/>
	<line fill="none" stroke="#000000" x1="130.623" y1="86.456" x2="128.208" y2="101.143"/>
	<path fill="none" stroke="#000000" d="M91.062,105.584c5.867-3.612,14.821-5.92,24.853-5.92c4.418,0,8.627,0.448,12.456,1.257"/>
	<line fill="none" stroke="#000000" x1="91.185" y1="105.602" x2="98.664" y2="90.331"/>
	<line fill="none" stroke="#000000" x1="98.914" y1="90.331" x2="83.175" y2="94.954"/>
	<path fill="none" stroke="#000000" d="M78.581,76.664c3.498,0,6.333,4.85,6.333,10.833c0,2.889-0.661,5.514-1.739,7.457"/>
	<path fill="none" stroke="#000000" d="M78.827,76.082c-0.187,1.842-0.751,3.659-1.726,5.347c-1.678,2.908-4.3,4.955-7.313,6.013"/>
	<line fill="none" stroke="#000000" x1="69.581" y1="87.706" x2="69.581" y2="76.997"/>
	<line fill="none" stroke="#000000" x1="69.685" y1="77.206" x2="61.977" y2="80.185"/>
	<line fill="none" stroke="#000000" x1="28.643" y1="172.706" x2="33.435" y2="166.831"/>
	<path fill="none" stroke="#000000" d="M117.665,53.107c-1.368,4.453-4.001,8.168-7.376,10.509"/>
	<path fill="none" stroke="#000000" d="M115.489,35.841c0.821,1.156,1.518,2.41,2.071,3.74"/>
	<path fill="none" stroke="#000000" d="M96.968,28.251c1.505-0.598,3.112-0.921,4.78-0.921c2.364,0,4.604,0.648,6.608,1.808"/>
	<path fill="none" stroke="#000000" d="M96.968,28.251"/>
	<path fill="none" stroke="#000000" d="M87.758,38.139c0.816-2.091,1.935-3.97,3.287-5.552"/>
	<path fill="none" stroke="#000000" d="M93.998,63.393c-3.407-2.328-6.017-6.543-7.114-11.655"/>
	<line fill="none" stroke="#000000" x1="87.248" y1="52.331" x2="77.248" y2="51.331"/>
	<line fill="none" stroke="#000000" x1="77.623" y1="51.018" x2="65.81" y2="59.706"/>
	<line fill="none" stroke="#000000" x1="66.248" y1="59.331" x2="62.248" y2="80.331"/>
	<line fill="none" stroke="#000000" x1="88.248" y1="38.331" x2="72.248" y2="38.331"/>
	<line fill="none" stroke="#000000" x1="72.748" y1="38.206" x2="56.935" y2="52.831"/>
	<line fill="none" stroke="#000000" x1="57.248" y1="52.331" x2="49.81" y2="64.206"/>
	<line fill="none" stroke="#000000" x1="117.248" y1="53.581" x2="122.248" y2="51.331"/>
	<line fill="none" stroke="#000000" x1="122.248" y1="51.331" x2="131.248" y2="58.581"/>
	<line fill="none" stroke="#000000" x1="131.248" y1="58.581" x2="140.498" y2="73.081"/>
	<line fill="none" stroke="#000000" x1="117.123" y1="39.206" x2="130.248" y2="39.206"/>
	<line fill="none" stroke="#000000" x1="129.623" y1="38.956" x2="138.435" y2="46.143"/>
	<line fill="none" stroke="#000000" x1="138.248" y1="45.831" x2="149.748" y2="73.706"/>
	<line fill="none" stroke="#000000" x1="112.748" y1="2.268" x2="120.498" y2="12.268"/>
	<line fill="none" stroke="#000000" x1="120.498" y1="11.643" x2="118.498" y2="20.018"/>
	<line fill="none" stroke="#000000" x1="118.498" y1="19.518" x2="107.685" y2="29.268"/>
	<line fill="none" stroke="#000000" x1="112.373" y1="2.479" x2="122.998" y2="1.12"/>
	<line fill="none" stroke="#000000" x1="122.498" y1="1.018" x2="130.748" y2="11.018"/>
	<line fill="none" stroke="#000000" x1="130.925" y1="10.518" x2="126.862" y2="26.268"/>
	<line fill="none" stroke="#000000" x1="126.998" y1="26.018" x2="115.248" y2="35.768"/>
	<path fill="none" stroke="#000000" d="M98.632,69.644c-2.887-1.159-4.885-3.662-4.885-6.563"/>
	<path fill="none" stroke="#000000" d="M110.748,63.081c0,2.599-1.604,4.879-4.013,6.159"/>
	<line fill="none" stroke="#000000" x1="93.998" y1="1.914" x2="86.248" y2="11.914"/>
	<line fill="none" stroke="#000000" x1="86.248" y1="11.477" x2="88.435" y2="19.643"/>
	<line fill="none" stroke="#000000" x1="88.248" y1="19.164" x2="97.435" y2="27.893"/>
	<line fill="none" stroke="#000000" x1="93.935" y1="2.336" x2="83.685" y2="0.492"/>
	<line fill="none" stroke="#000000" x1="84.248" y1="0.664" x2="75.498" y2="10.914"/>
	<line fill="none" stroke="#000000" x1="75.56" y1="10.456" x2="79.748" y2="26.081"/>
	<line fill="none" stroke="#000000" x1="79.748" y1="25.664" x2="91.185" y2="33.164"/>
	<path fill="none" stroke="#000000" d="M98.992,69.592c0.357-1.671,1.903-2.928,3.756-2.928c1.852,0,3.397,1.257,3.755,2.928"/>
	<path fill="none" stroke="#000000" d="M33.43,167.521c-2.25-5.679-3.516-12.082-3.516-18.857c0-17.535,8.479-32.58,20.562-39.006"
		/>
	<line fill="none" stroke="#000000" x1="50.248" y1="109.956" x2="22.914" y2="47.664"/>
	<line fill="none" stroke="#000000" x1="23.185" y1="47.831" x2="15.123" y2="58.768"/>
	<line fill="none" stroke="#000000" x1="15.248" y1="58.331" x2="11.914" y2="108.998"/>
	<line fill="none" stroke="#000000" x1="50.248" y1="64.331" x2="27.498" y2="39.706"/>
	<line fill="none" stroke="#000000" x1="17.516" y1="34.347" x2="0.394" y2="56.164"/>
	<line fill="none" stroke="#000000" x1="18.096" y1="33.617" x2="17.516" y2="34.347"/>
	<line fill="none" stroke="#000000" x1="0.581" y1="55.664" x2="0.581" y2="158.998"/>
	<line fill="none" stroke="#000000" x1="22.373" y1="221.268" x2="7.248" y2="233.665"/>
	<line fill="none" stroke="#000000" x1="7.498" y1="233.456" x2="0.581" y2="158.998"/>
	<line fill="none" stroke="#000000" x1="11.852" y1="108.623" x2="21.851" y2="113.664"/>
	<line fill="none" stroke="#000000" x1="21.185" y1="113.518" x2="30.581" y2="100.331"/>
	<line fill="none" stroke="#000000" x1="30.685" y1="100.893" x2="21.685" y2="93.893"/>
	<line fill="none" stroke="#000000" x1="21.987" y1="94.331" x2="22.946" y2="88.018"/>
	<line fill="none" stroke="#000000" x1="22.581" y1="88.331" x2="36.81" y2="90.956"/>
	<line fill="none" stroke="#000000" x1="36.727" y1="90.748" x2="40.998" y2="106.102"/>
	<line fill="none" stroke="#000000" x1="41.248" y1="105.664" x2="20.581" y2="126.998"/>
	<line fill="none" stroke="#000000" x1="21.144" y1="126.935" x2="10.248" y2="122.331"/>
	<line fill="none" stroke="#000000" x1="10.579" y1="121.998" x2="11.246" y2="147.332"/>
	<line fill="none" stroke="#000000" x1="11.06" y1="146.768" x2="29.081" y2="172.331"/>
	<polyline fill="none" stroke="#000000" points="17.81,33.893 20.08,11.805 41.563,2.853 60.777,15.987 58.508,38.075 44.433,43.94 
			"/>
	<line fill="none" stroke="#000000" x1="27.588" y1="40.206" x2="29.363" y2="19.956"/>
	<line fill="none" stroke="#000000" x1="29.246" y1="20.331" x2="41.435" y2="13.768"/>
	<line fill="none" stroke="#000000" x1="40.935" y1="13.768" x2="49.371" y2="20.164"/>
	<line fill="none" stroke="#000000" x1="49.246" y1="19.664" x2="47.912" y2="30.331"/>
	<line fill="none" stroke="#000000" x1="48.248" y1="29.581" x2="37.935" y2="34.768"/>
	<line fill="none" stroke="#000000" x1="37.912" y1="34.331" x2="44.998" y2="43.706"/>
	<line fill="none" stroke="#000000" x1="78.127" y1="140.595" x2="65.899" y2="129.957"/>
	<line fill="none" stroke="#000000" x1="115.336" y1="165.352" x2="99.185" y2="154.706"/>
	<path fill="none" stroke="#000000" d="M99.117,155.517c0.045-0.332,0.079-0.668,0.102-1.007"/>
	<path fill="none" stroke="#000000" d="M77.616,140.875c-4.209,2.556-7.029,7.252-7.029,12.624c0,8.1,6.416,14.666,14.332,14.666
		c7.248,0,13.237-5.503,14.198-12.647"/>
	<path fill="none" stroke="#000000" d="M78.52,140.37c-0.308,0.157-0.609,0.326-0.904,0.504"/>
	<path fill="none" stroke="#000000" d="M66.305,129.968c-10.72,4.233-17.886,11.918-17.886,20.697c0,13.346,16.565,24.166,37,24.166
		c12.343,0,23.273-3.947,29.995-10.015"/>
	<path fill="none" stroke="#000000" d="M133.215,197.974c-5.332-1.255-8.967-3.759-8.967-6.644c0-4.143,7.499-7.5,16.75-7.5
		s16.75,3.357,16.75,7.5c0,2.711-3.212,5.086-8.025,6.404"/>
	<path fill="none" stroke="#000000" d="M149.935,197.456c0,4.143-3.694,7.5-8.25,7.5c-4.556,0-8.25-3.357-8.25-7.5"/>
	<path fill="none" stroke="#000000" d="M125.385,255.942c-8.204-0.765-13.548-3.018-14.546-6.743
		c-0.918-3.426,1.968-7.611,7.665-11.968"/>
	<path fill="none" stroke="#000000" d="M125.385,255.942"/>
	<path fill="none" stroke="#000000" d="M149.389,254.973c-3.386,0.456-6.632,0.788-9.704,0.997"/>
	<path fill="none" stroke="#000000" d="M180.427,248.198c-1.89,0.562-3.813,1.105-5.765,1.628c-4.1,1.099-8.134,2.056-12.06,2.871"
		/>
	<path fill="none" stroke="#000000" d="M212.016,235.611c-5.211,2.498-11.319,5.01-18.081,7.407"/>
	<path fill="none" stroke="#000000" d="M208.413,210.331c11.925,0.027,19.961,2.384,21.209,7.04
		c0.932,3.478-2.059,7.737-7.929,12.165"/>
	<path fill="none" stroke="#000000" d="M117.74,237.893"/>
	<path fill="none" stroke="#000000" d="M142.139,238.199c-2.692,0.342-5.27,0.588-7.703,0.738"/>
	<path fill="none" stroke="#000000" d="M142.139,238.199"/>
	<path fill="none" stroke="#000000" d="M171.806,231.61c-2.329,0.726-4.726,1.42-7.176,2.076c-3.039,0.815-6.033,1.537-8.957,2.167"
		/>
	<path fill="none" stroke="#000000" d="M200.024,219.464c-4.054,2.512-9.15,5.044-15.007,7.432"/>
	<line fill="none" stroke="#000000" x1="208.685" y1="210.206" x2="222.165" y2="229.664"/>
	<line fill="none" stroke="#000000" x1="199.727" y1="219.289" x2="212.227" y2="235.789"/>
	<line fill="none" stroke="#000000" x1="185.227" y1="226.414" x2="194.415" y2="243.414"/>
	<line fill="none" stroke="#000000" x1="171.435" y1="231.518" x2="179.873" y2="248.206"/>
	<line fill="none" stroke="#000000" x1="155.977" y1="235.601" x2="163.165" y2="252.414"/>
	<line fill="none" stroke="#000000" x1="141.727" y1="238.101" x2="149.31" y2="255.143"/>
	<line fill="none" stroke="#000000" x1="118.185" y1="237.456" x2="125.123" y2="256.143"/>
	<line fill="none" stroke="#000000" x1="134.748" y1="238.643" x2="140.373" y2="256.143"/>
	<line fill="none" stroke="#000000" x1="52.123" y1="205.268" x2="43.56" y2="208.643"/>
	<line fill="none" stroke="#000000" x1="43.248" y1="208.331" x2="52.414" y2="216.81"/>
	<line fill="none" stroke="#000000" x1="51.914" y1="216.998" x2="64.581" y2="206.331"/>
	<line fill="none" stroke="#000000" x1="64.435" y1="206.706" x2="37.06" y2="184.206"/>
	<g>
		<path fill="none" stroke="#000000" d="M150.896,122.873c9.048,0.367,7.465-10.784,13.418-14.582
			c5.382-3.435,12.906-3.483,18.312,0.054"/>
		<path fill="none" stroke="#000000" d="M178.542,114.32c-0.732-0.509-1.268-1.296-1.435-2.24c-0.332-1.888,0.938-3.69,2.838-4.025
			c0.861-0.151,1.704,0.024,2.398,0.437"/>
		<path fill="none" stroke="#000000" d="M173.555,119.069c-0.72-0.436-1.236-1.12-1.384-1.951c-0.293-1.663,1.01-3.283,2.908-3.617
			c1.298-0.229,2.539,0.201,3.288,1.026"/>
		<path fill="none" stroke="#000000" d="M168.385,122.769c-0.735-0.451-1.283-1.204-1.444-2.122c-0.3-1.7,0.835-3.321,2.534-3.62
			c1.699-0.3,3.32,0.835,3.62,2.535"/>
		<path fill="none" stroke="#000000" d="M162.305,125.888c-0.706-0.358-1.206-0.936-1.332-1.65
			c-0.252-1.428,1.088-2.857,2.991-3.193c1.427-0.252,2.768,0.183,3.454,1.019"/>
		<path fill="none" stroke="#000000" d="M155.566,128.92"/>
		<path fill="none" stroke="#000000" d="M155.389,135.758c1.747-3.127-3.234-10.507,2.567-11.53c1.76-0.311,3.429,0.813,3.727,2.507
			"/>
		<path fill="none" stroke="#000000" d="M151.451,139.732c-0.536-0.604-0.949-1.459-1.123-2.447
			c-0.372-2.108,0.483-4.021,1.912-4.272c1.428-0.252,2.886,1.252,3.258,3.36"/>
		<path fill="none" stroke="#000000" d="M150.916,123.346c0.821-1.873-1.307-2.42-2.438-3.09c-2.035-1.203-1.682-0.67-1.774-3.529"
			/>
		<line fill="none" stroke="#000000" x1="146.703" y1="116.727" x2="142.951" y2="119.927"/>
	</g>
	<path fill="none" stroke="#000000" d="M137.625,126.071c-7.623,4.846-11.855-5.682-18.898-6.021
		c-6.368-0.307-12.884,3.415-15.772,9.206"/>
	<path fill="none" stroke="#000000" d="M109.448,132.365c0.382-0.836,0.448-1.822,0.105-2.762c-0.683-1.877-2.737-2.854-4.585-2.181
		c-0.838,0.305-1.49,0.897-1.889,1.626"/>
	<path fill="none" stroke="#000000" d="M116.139,133.881c0.41-0.727,0.521-1.565,0.238-2.343c-0.567-1.557-2.499-2.284-4.315-1.622
		c-1.241,0.451-2.106,1.433-2.351,2.507"/>
	<path fill="none" stroke="#000000" d="M122.487,134.597c0.412-0.759,0.51-1.685,0.191-2.56c-0.59-1.622-2.384-2.458-4.005-1.867
		c-1.622,0.59-2.458,2.383-1.868,4.005"/>
	<path fill="none" stroke="#000000" d="M129.587,134.346c0.475-0.683,0.642-1.449,0.392-2.137c-0.5-1.375-2.485-1.916-4.432-1.207
		c-1.46,0.531-2.484,1.614-2.694,2.703"/>
	<path fill="none" stroke="#000000" d="M136.666,133.515"/>
	<path fill="none" stroke="#000000" d="M140.237,139.348c-2.969-1.764-2.357-10.316-7.702-8.371
		c-1.622,0.59-2.478,2.332-1.911,3.888"/>
	<path fill="none" stroke="#000000" d="M145.634,140.82c0.163-0.791,0.094-1.738-0.25-2.681c-0.731-2.011-2.43-3.24-3.792-2.744
		s-1.874,2.528-1.142,4.539"/>
	<path fill="none" stroke="#000000" d="M137.905,126.362c-1.647-1.211-0.078-2.75,0.567-3.896c1.16-2.059,1.122-1.421-0.229-3.943"
		/>
	<line fill="none" stroke="#000000" x1="138.244" y1="118.523" x2="143.093" y2="119.418"/>
	<path fill="none" stroke="#000000" d="M145.763,140.605c-0.003-1.358,0.936-2.555,2.275-2.79c1.131-0.199,2.226,0.34,2.817,1.279"
		/>
	<line fill="none" stroke="#000000" x1="51.623" y1="205.393" x2="36.123" y2="185.206"/>
	<line fill="none" stroke="#000000" x1="36.623" y1="185.456" x2="37.435" y2="184.456"/>
</g>
</svg>
